# xmcd CD database file
#
# Track frame offsets:
#	150
#	17275
#	32640
#	51195
#	63355
#	76540
#	91477
#	111727
#	125147
#	138300
#
# Disc length: 2159 seconds
#
# Revision: 3
# Processed by: cddbd v1.5.2PL0 Copyright (c) Steve Scherf et al.
# Submitted via: CDex 1.51
#
DISCID=7f086d0a
DTITLE=Otis Redding - Live In Europe
DYEAR=1967
DGENRE=Soul
TTITLE0=Respect
TTITLE1=I Can't Turn You Loose
TTITLE2=I've Been Loving You Too Long
TTITLE3=My Girl
TTITLE4=Shake
TTITLE5=Satisfaction
TTITLE6=Fa-Fa-Fa-Fa-Fa (Sad Song)
TTITLE7=These Arms Of Mine
TTITLE8=Day Tripper
TTITLE9=Try A Little Tenderness
EXTD=YEAR: 1967
EXTT0=
EXTT1=
EXTT2=
EXTT3=
EXTT4=
EXTT5=
EXTT6=
EXTT7=
EXTT8=
EXTT9=
PLAYORDER=
